<svg width="800" height="689.03807" xmlns="http://www.w3.org/2000/svg" data-name="Layer 1">

 <g>
  <title>Layer 1</title>
  <path id="svg_1" fill="#ffb8b8" d="m83.0888,362.55749a27.98147,27.98147 0 0 0 42.37447,6.73419l86.25673,49.47155l-3.21476,-51.5724l-81.418,-39.07245a28.13311,28.13311 0 0 0 -43.99844,34.43911z"/>
  <path id="svg_2" fill="#2f2e41" d="m332.81037,560.73897c-25.58649,35.81171 -24.67114,95.72552 -17.53253,161.29907l120.97431,0l5.25976,-12.27277l7.013,12.27277l113.96137,0s-8.76624,-166.5589 -24.54554,-171.81867s-205.13037,10.5196 -205.13037,10.5196z"/>
  <circle id="svg_3" fill="#ffb8b8" r="61.36378" cy="125.2184" cx="436.25219"/>
  <path id="svg_4" fill="#3f3d56" d="m480.60364,202.50295l12,23l83,37l-21.81737,211.13583l-9.18263,21.86417l4.96133,18.98719l-11.96133,14.01281c12.00666,10.86383 13.53168,22.23645 7,34l-38.22143,8.75551s-212.52143,18.89787 -194.6109,-14.026c19.5697,-35.97382 24.5531,-142.21509 -18.64893,-198.988c-36.67743,-48.19873 -8.51874,-110.74154 -8.51874,-110.74154l87,-26l32,-19l77,0.00003z"/>
  <path id="svg_5" fill="#2f2e41" d="m463.49519,35.33012a3.3845,3.3845 0 0 1 3.25677,-1.93272c-28.09344,-1.68047 -57.68463,1.5939 -81.18768,17.0753c-5.694,3.75065 -11.06234,8.2243 -17.25845,10.94508a1.85911,1.85911 0 0 0 -0.37964,3.163l0.68052,0.53368a1.86606,1.86606 0 0 1 -0.60741,3.25335l0,0a1.86606,1.86606 0 0 0 -0.4688,3.35219l5.21528,3.37072a1.85778,1.85778 0 0 1 0.0171,3.12575a9.27094,9.27094 0 0 1 -1.38684,0.70319a1.86177,1.86177 0 0 0 -0.59,3.12753a18.53712,18.53712 0 0 1 5.04588,7.37659c1.73828,4.51977 2.05054,9.44217 2.34418,14.27575c1.79657,-6.9743 9.408,-11.07971 16.59783,-11.49687s14.20191,1.95513 21.1991,3.66045a117.27165,117.27165 0 0 0 46.548,1.79065c-5.25647,10.54876 -0.82245,23.13119 3.63952,34.03981l14.44311,-6.19059c19.83576,-11.1969 6.01886,36.16774 -1.39679,42.67007c15.14148,5.24939 54.77246,-53.01373 42.02326,-75.11433c-6.632,-11.49641 -1.92432,-26.324 -14.96289,-37.2275c-6.39032,-6.72715 -19.14893,-3.73718 -25.66358,-9.32824c-2.56408,-2.20055 1.34412,-8.08781 -2.17956,-9.37084c-1.17046,-0.42615 -14.73537,-2.23152 -14.92891,-1.80202z"/>
  <path id="svg_6" fill="#3f3d56" d="m359.55364,227.44289c-11.26,49.99 -40.14,166.71 -69.44,191.12011a17.09185,17.09185 0 0 1 -6.52,3.84986c-102.99,25.09009 -135.99,-38.90991 -135.99,-38.90991s27.6,-13.45 28.3,-39.74l55.66,17.27l48.52,-109.19007l7.14,-6.66l0.04,-0.03992l72.29,-17.70007z"/>
  <path id="svg_7" fill="#ffb8b8" d="m579.14506,689.07589a27.9815,27.9815 0 0 0 -2.93831,-42.80551l28.87189,-95.15291l-49.53858,14.69627l-19.82242,88.10573a28.13311,28.13311 0 0 0 43.42743,35.15642l-0.00001,0z"/>
  <path id="svg_8" fill="#3f3d56" d="m552.72004,257.17973l22.8836,5.32322s94.58417,184.02791 71.79194,219.09292s-50.7146,151.15612 -50.7146,151.15612s-41.298,-8.21 -57.07734,-29.249l28.89558,-137.68626l-29.8053,-115.7146l14.02612,-92.9224z"/>
  <path id="svg_9" fill="#e6e6e6" d="m118.57953,530.45568l0.82172,-296.38866a22.65241,22.65241 0 0 1 22.68944,-22.564l223.83925,0.62059a22.65238,22.65238 0 0 1 22.56385,22.68944l-0.82172,296.38866a22.65238,22.65238 0 0 1 -22.68932,22.564l-223.83924,-0.62058a22.6524,22.6524 0 0 1 -22.56398,-22.68945z"/>
  <path id="svg_10" fill="#fff" d="m135.99758,440.98149l0.52828,-190.54552a21.21423,21.21423 0 0 1 21.24934,-21.13184l192.371,0.53334a21.21515,21.21515 0 0 1 21.13292,21.24935l-0.73122,263.74558a21.21517,21.21517 0 0 1 -21.25044,21.13183l-119.16982,-0.33037a94.49829,94.49829 0 0 1 -94.13006,-94.65237z"/>
  <path id="svg_11" fill="#1ac157" d="m328.10364,313.00295l-150,0a9,9 0 0 1 0,-18l150,0a9,9 0 0 1 0,18z"/>
  <path id="svg_12" fill="#1ac157" d="m211.10364,271.50295l-33,0a9,9 0 0 1 0,-18l33,0a9,9 0 0 1 0,18z"/>
  <path id="svg_13" fill="#1ac157" d="m328.10364,354.50295l-150,0a9,9 0 0 1 0,-18l150,0a9,9 0 0 1 0,18z"/>
  <path id="svg_14" fill="#1ac157" d="m328.10364,396.00295l-150,0a9,9 0 0 1 0,-18l150,0a9,9 0 0 1 0,18z"/>
  <circle id="svg_15" fill="#1ac157" r="35.81102" cy="469.54264" cx="315.96655"/>
  <path id="svg_16" fill="#fff" d="m311.08118,488.1806a3.98231,3.98231 0 0 1 -3.18646,-1.59372l-9.7698,-13.02661a3.98339,3.98339 0 1 1 6.37358,-4.77985l6.39173,8.52166l16.41634,-24.62419a3.98356,3.98356 0 1 1 6.629,4.41936l-19.53955,29.30938a3.9851,3.9851 0 0 1 -3.204,1.77267c-0.03692,0.00065 -0.07388,0.0013 -0.11084,0.0013z"/>
  <circle id="svg_17" fill="#f2f2f2" r="17" cy="125.50295" cx="239.60365"/>
  <circle id="svg_18" fill="#f2f2f2" r="17" cy="614.50295" cx="177.60365"/>
  <circle id="svg_19" fill="#f2f2f2" r="17" cy="191.50295" cx="568.60365"/>
 </g>
</svg>